<?xml version="1.0" encoding="iso-8859-1"?>
<!-- Generator: Adobe Illustrator 19.0.0, SVG Export Plug-In . SVG Version: 6.00 Build 0)  -->
<svg version="1.1" id="Layer_1" xmlns="http://www.w3.org/2000/svg" xmlns:xlink="http://www.w3.org/1999/xlink" x="0px" y="0px"
	 viewBox="0 0 512 512" style="enable-background:new 0 0 512 512;" xml:space="preserve">
<circle style="fill:#FFC200;" cx="256" cy="272" r="240"/>
<g>
	<path style="fill:#F2B800;" d="M256,32c-6.744,0-13.4,0.348-20,0.896C359.176,43.068,456,146.192,456,272
		s-96.824,228.932-220,239.104c6.6,0.548,13.256,0.896,20,0.896c132.544,0,240-107.448,240-240S388.544,32,256,32z"/>
	<path style="fill:#F2B800;" d="M256,469.916c-61.608,0-120.028-26.048-160.28-71.448c-3.936-4.44-5.916-10.164-5.568-16.1
		c0.36-5.928,3.004-11.376,7.448-15.32c4.08-3.612,9.32-5.604,14.764-5.604c6.368,0,12.436,2.736,16.66,7.5
		c31.812,35.884,78.088,56.456,126.968,56.456c48.752,0,94.932-20.464,126.696-56.156c4.232-4.744,10.288-7.456,16.636-7.456
		c5.452,0,10.712,2,14.788,5.624c4.444,3.952,7.08,9.4,7.42,15.332c0.352,5.936-1.64,11.656-5.584,16.096
		C375.752,444.008,317.444,469.916,256,469.916z"/>
</g>
<path style="fill:#F5F5F5;" d="M256,458.78c-58.42,0-113.808-24.676-151.952-67.708c-4.08-4.592-3.656-11.628,0.94-15.712
	c4.604-4.084,11.636-3.656,15.712,0.944c33.924,38.268,83.244,60.216,135.3,60.216c51.928,0,101.14-21.828,135.012-59.892
	c4.084-4.584,11.116-5,15.716-0.916c4.592,4.084,5,11.12,0.916,15.712C369.548,434.236,314.28,458.78,256,458.78z"/>
<g>
	<path style="fill:#263740;" d="M204,228c-6.624,0-12-5.376-12-12c0-19.852-16.148-36-36-36s-36,16.148-36,36
		c0,6.624-5.376,12-12,12s-12-5.376-12-12c0-33.084,26.916-60,60-60s60,26.916,60,60C216,222.624,210.624,228,204,228z"/>
	<path style="fill:#263740;" d="M404,228c-6.624,0-12-5.376-12-12c0-19.852-16.148-36-36-36s-36,16.148-36,36
		c0,6.624-5.376,12-12,12s-12-5.376-12-12c0-33.084,26.916-60,60-60s60,26.916,60,60C416,222.624,410.624,228,404,228z"/>
</g>
<path style="fill:#F5F5F5;" d="M256,72c-56.02,0-116-16.076-116-40c0-29.692,88.788-32,116-32s116,2.308,116,32
	C372,55.924,312.02,72,256,72z M156.084,32.224C158.944,39.128,196.512,56,256,56c58.944,0,96.368-16.568,99.864-23.864
	C351.852,26.452,318.788,16,256,16C192.908,16,159.824,26.556,156.084,32.224z"/>
<g>
</g>
<g>
</g>
<g>
</g>
<g>
</g>
<g>
</g>
<g>
</g>
<g>
</g>
<g>
</g>
<g>
</g>
<g>
</g>
<g>
</g>
<g>
</g>
<g>
</g>
<g>
</g>
<g>
</g>
</svg>
