<?xml version="1.0" encoding="iso-8859-1"?>
<!-- Generator: Adobe Illustrator 19.0.0, SVG Export Plug-In . SVG Version: 6.00 Build 0)  -->
<svg version="1.1" id="Layer_1" xmlns="http://www.w3.org/2000/svg" xmlns:xlink="http://www.w3.org/1999/xlink" x="0px" y="0px"
	 viewBox="0 0 512 512" style="enable-background:new 0 0 512 512;" xml:space="preserve">
<circle style="fill:#FFC200;" cx="256" cy="256" r="248"/>
<g>
	<path style="fill:#F2B800;" d="M256,8c-6.744,0-13.4,0.344-20,0.872C363.592,19.068,464,125.772,464,256
		S363.592,492.928,236,503.128c6.6,0.528,13.256,0.872,20,0.872c136.96,0,248-111.032,248-248S392.96,8,256,8z"/>
	<path style="fill:#F2B800;" d="M41.392,292h128c31.776,0,63.336-25.392,66.316-61.416c0.184-0.832,0.292-1.692,0.292-2.584
		c0-15.44,12.564-28,28-28s28,12.56,28,28c0,0.888,0.108,1.748,0.292,2.584c2.98,36.032,34.54,61.416,66.316,61.416h128
		c5.484,0,10.656-1.38,15.24-3.772C503.22,277.672,504,266.928,504,256c0-43.54-11.252-84.436-30.96-120H325.22
		c-8.224,0-15.728,3.028-21.52,8h-79.4c-5.792-4.972-13.296-8-21.52-8H41.392c-0.844,0-1.672,0.064-2.5,0.128
		C19.228,171.664,8,212.512,8,256c0,1.624,0.084,3.228,0.116,4.836C9.368,278.1,23.836,292,41.392,292z M292.072,168
		c-0.016,0.464-0.072,0.92-0.072,1.392v14.86c-8.092-5.196-17.688-8.252-28-8.252s-19.908,3.056-28,8.252v-14.86
		c0-0.468-0.056-0.924-0.072-1.392H292.072z"/>
</g>
<g>
	<path style="fill:#263740;" d="M296,232c-6.628,0-12-5.372-12-12c0-15.44-12.564-28-28-28s-28,12.56-28,28c0,6.628-5.372,12-12,12
		s-12-5.372-12-12c0-28.672,23.328-52,52-52s52,23.328,52,52C308,226.628,302.628,232,296,232z"/>
	<path style="fill:#263740;" d="M228,217.044C228,256,194.78,284,161.392,284h-128C15.028,284,0,268.8,0,250.436v-89.044
		C0,143.028,15.028,128,33.392,128h161.392c18.372,0,33.224,15.028,33.224,33.392L228,217.044L228,217.044z"/>
</g>
<path style="fill:#C2E2F2;" d="M33.392,268C23.968,268,16,259.956,16,250.436v-89.044C16,151.804,23.8,144,33.392,144h161.392
	c9.5,0,17.224,7.8,17.224,17.392v55.652C212.004,247.524,185.836,268,161.4,268H33.392z"/>
<path style="fill:#263740;" d="M284,217.044C284,256,317.22,284,350.608,284h128C496.972,284,512,268.8,512,250.436v-89.044
	C512,143.028,496.972,128,478.608,128H317.22c-18.372,0-33.224,15.028-33.224,33.392L284,217.044L284,217.044z"/>
<path style="fill:#C2E2F2;" d="M350.608,268C326.168,268,300,247.524,300,217.044v-55.652c0-9.588,7.728-17.392,17.22-17.392
	h161.392c9.588,0,17.396,7.8,17.396,17.392v89.044c0,9.52-7.964,17.564-17.396,17.564H350.608z"/>
<path style="fill:#F2B800;" d="M256,461.916c-61.608,0-120.028-26.048-160.28-71.452c-3.936-4.44-5.916-10.164-5.568-16.1
	c0.36-5.936,3.004-11.376,7.448-15.32c4.08-3.616,9.32-5.608,14.764-5.608c6.368,0,12.436,2.74,16.66,7.5
	c31.812,35.884,78.088,56.46,126.968,56.46c48.752,0,94.932-20.468,126.696-56.156c4.232-4.744,10.288-7.46,16.636-7.46
	c5.452,0,10.712,2,14.788,5.632c4.444,3.948,7.08,9.396,7.42,15.328c0.352,5.936-1.64,11.656-5.584,16.096
	C375.752,436.004,317.444,461.916,256,461.916z"/>
<path style="fill:#F5F5F5;" d="M256,450.78c-58.42,0-113.808-24.672-151.952-67.704c-4.08-4.592-3.656-11.632,0.94-15.712
	c4.604-4.084,11.636-3.656,15.712,0.944c33.924,38.272,83.244,60.212,135.3,60.212c51.928,0,101.14-21.828,135.012-59.888
	c4.084-4.584,11.116-5,15.716-0.916c4.588,4.084,5,11.12,0.916,15.712C369.548,426.236,314.28,450.78,256,450.78z"/>
<rect x="212" y="136" style="fill:#263740;" width="88" height="24"/>
<g>
	<path style="fill:#DAEAF2;" d="M98.756,144l-81.74,112.016C19.4,262.884,25.892,268,33.392,268h7.852l90.484-124H98.756z"/>
	<polygon style="fill:#DAEAF2;" points="16,216.3 16,239.556 85.728,144 68.756,144 	"/>
	<path style="fill:#DAEAF2;" d="M365.908,268l81.656-124h-32.968L334.8,265.176c5.168,1.812,10.524,2.824,15.808,2.824H365.908z"/>
	<path style="fill:#DAEAF2;" d="M313.772,251.536c3.304,3.5,7.044,6.504,11.076,8.948L401.564,144h-16.976L313.772,251.536z"/>
</g>
<g>
</g>
<g>
</g>
<g>
</g>
<g>
</g>
<g>
</g>
<g>
</g>
<g>
</g>
<g>
</g>
<g>
</g>
<g>
</g>
<g>
</g>
<g>
</g>
<g>
</g>
<g>
</g>
<g>
</g>
</svg>
