<?xml version="1.0" encoding="iso-8859-1"?>
<!-- Generator: Adobe Illustrator 19.0.0, SVG Export Plug-In . SVG Version: 6.00 Build 0)  -->
<svg version="1.1" id="Layer_1" xmlns="http://www.w3.org/2000/svg" xmlns:xlink="http://www.w3.org/1999/xlink" x="0px" y="0px"
	 viewBox="0 0 512 512" style="enable-background:new 0 0 512 512;" xml:space="preserve">
<circle style="fill:#FFC200;" cx="256" cy="256" r="248"/>
<g>
	<path style="fill:#F2B800;" d="M256,8c-6.744,0-13.4,0.344-20,0.872C363.592,19.068,464,125.772,464,256
		S363.592,492.928,236,503.128c6.6,0.528,13.256,0.872,20,0.872c136.96,0,248-111.032,248-248S392.96,8,256,8z"/>
	<path style="fill:#F2B800;" d="M257.952,464C170.8,464,89.6,402.7,64.892,318.252c-0.712-2.416-0.24-5.032,1.272-7.048
		S70.048,308,72.572,308h369.132c2.456,0,4.776,1.128,6.296,3.064c1.516,1.932,2.064,4.456,1.472,6.844
		C429.032,401.192,346.696,464,257.952,464z"/>
</g>
<path style="fill:#F5F5F5;" d="M72.572,316C94.8,391.936,169.82,456,257.96,456c88.18,0,165.112-64.064,183.752-140H72.572z"/>
<g>
	<path style="fill:#263740;" d="M4,132c-3.488,10.632-4,16.2-4,28c0,59.908,44.092,108,104,108s108-48.092,108-108
		c0-11.8-0.544-21.368-4-32c-31.028-15.648-66.908-20-104-20S34.996,116.352,4,132z"/>
	<path style="fill:#263740;" d="M508,132c3.488,10.632,4,16.2,4,28c0,59.908-44.092,108-104,108s-108-48.092-108-108
		c0-11.8,0.544-21.368,4-32c31.028-15.648,66.908-20,104-20S477.004,116.352,508,132z"/>
	<path style="fill:#263740;" d="M312,180c-4.416,0-8-3.584-8-8c0-24.736-24.884-36-48-36s-48,11.264-48,36c0,4.416-3.584,8-8,8
		s-8-3.584-8-8c0-34.14,32.196-52,64-52s64,17.86,64,52C320,176.416,316.416,180,312,180z"/>
</g>
<g>
	<path style="fill:#C2E2F2;" d="M104,252c-50.168,0-88-39.552-88-92c0-7.656,0.196-11.768,1.376-16.72
		C45.376,130.144,73.08,124,104,124c37.848,0,66.84,4.88,90.464,15.296C195.72,145.412,196,151.736,196,160
		C196,210.728,154.736,252,104,252z"/>
	<path style="fill:#C2E2F2;" d="M408,252c-50.736,0-92-41.272-92-92c0-8.264,0.28-14.588,1.536-20.704
		C341.16,128.88,370.152,124,408,124c30.92,0,58.624,6.148,86.624,19.28c1.18,4.948,1.376,9.064,1.376,16.72
		C496,212.448,458.168,252,408,252z"/>
</g>
<g>
	<path style="fill:#DAEAF2;" d="M116.608,124.212L29.884,210.94c4.14,6.76,9.112,12.864,14.8,18.168L147.108,126.68
		C137.648,125.396,127.548,124.552,116.608,124.212z"/>
	<path style="fill:#DAEAF2;" d="M18.936,184.572c1.092,4.44,2.476,8.724,4.132,12.84l73.224-73.216
		c-6.252,0.212-12.38,0.692-18.412,1.436L18.936,184.572z"/>
	<path style="fill:#DAEAF2;" d="M432.684,125.44l-94.44,94.44c5.084,5.916,10.912,11.18,17.328,15.652l104.796-104.804
		C451.296,128.296,442.1,126.536,432.684,125.44z"/>
	<path style="fill:#DAEAF2;" d="M329.644,208.148l84.004-84.004c-1.884-0.048-3.74-0.144-5.648-0.144
		c-3.908,0-7.652,0.084-11.372,0.188l-72.824,72.828C325.504,200.872,327.452,204.592,329.644,208.148z"/>
</g>
<path style="fill:#E6E6E6;" d="M408.68,382h-27.672c-0.116-3-0.324-6-0.736-9c-0.636-4.332-1.464-8.668-3.132-13
	c-1.668,4.332-2.496,8.668-3.132,13c-0.416,3-0.608,6-0.736,9h-72.264c-0.116-3-0.324-6-0.736-9c-0.636-4.332-1.464-8.668-3.132-13
	c-1.668,4.332-2.496,8.668-3.132,13c-0.416,3-0.608,6-0.736,9h-72.264c-0.116-3-0.324-6-0.736-9c-0.636-4.332-1.464-8.668-3.132-13
	c-1.668,4.332-2.496,8.668-3.132,13c-0.416,3-0.608,6-0.736,9h-72.264c-0.116-3-0.324-6-0.736-9c-0.636-4.332-1.464-8.668-3.132-13
	c-1.668,4.332-2.496,8.668-3.132,13c-0.416,3-0.608,6-0.736,9H107.56c2.208,2.728,4.508,5.384,6.86,8h18.848
	c0.112,3,0.316,6,0.728,9c0.612,4.2,1.432,8.4,3.004,12.592c0.08,0.06,0.148,0.112,0.22,0.172c1.616-4.252,2.444-8.508,3.072-12.764
	c0.408-3,0.608-6,0.728-9h72.256c0.116,3,0.32,6,0.728,9c0.632,4.332,1.468,8.668,3.144,13c1.676-4.332,2.512-8.668,3.144-13
	c0.408-3,0.608-6,0.728-9h72.256c0.116,3,0.32,6,0.728,9c0.632,4.332,1.468,8.668,3.144,13c1.676-4.332,2.512-8.668,3.144-13
	c0.408-3,0.608-6,0.728-9h72.256c0.116,3,0.32,6,0.728,9c0.632,4.332,1.468,8.668,3.144,13c1.676-4.332,2.512-8.668,3.144-13
	c0.408-3,0.608-6,0.728-9h20.912C404.244,387.384,406.516,384.728,408.68,382z"/>
<g>
</g>
<g>
</g>
<g>
</g>
<g>
</g>
<g>
</g>
<g>
</g>
<g>
</g>
<g>
</g>
<g>
</g>
<g>
</g>
<g>
</g>
<g>
</g>
<g>
</g>
<g>
</g>
<g>
</g>
</svg>
