<?xml version="1.0" encoding="iso-8859-1"?>
<!-- Generator: Adobe Illustrator 19.0.0, SVG Export Plug-In . SVG Version: 6.00 Build 0)  -->
<svg version="1.1" id="Layer_1" xmlns="http://www.w3.org/2000/svg" xmlns:xlink="http://www.w3.org/1999/xlink" x="0px" y="0px"
	 viewBox="0 0 512 512" style="enable-background:new 0 0 512 512;" xml:space="preserve">
<circle style="fill:#FFC200;" cx="256" cy="256" r="256"/>
<g>
	<path style="fill:#F2B800;" d="M256,0c-6.74,0-13.396,0.34-20,0.852C368.02,11.068,472,121.352,472,256
		S368.024,500.932,236,511.148c6.604,0.512,13.26,0.852,20,0.852c141.38,0,256-114.612,256-256S397.38,0,256,0z"/>
	<path style="fill:#F2B800;" d="M325.22,136c-8.224,0-15.728,3.028-21.52,8h-79.4c-5.792-4.972-13.296-8-21.52-8H41.388
		c-4.552,0-8.896,0.928-12.86,2.596c-8.74,16.896-15.708,34.852-20.532,53.684v66.156c0,18.36,15.028,33.564,33.392,33.564h128
		c31.78,0,63.336-25.388,66.316-61.416c0.184-0.836,0.292-1.696,0.292-2.584c0-15.436,12.564-28,28-28s28,12.564,28,28
		c0,0.888,0.108,1.748,0.292,2.584c2.98,36.032,34.536,61.416,66.316,61.416h128c9.464,0,18.028-4.064,24.116-10.492
		c0.84-8.392,1.28-16.9,1.28-25.508c0-43.372-10.824-84.204-29.86-120H325.22z"/>
</g>
<g>
	<path style="fill:#263740;" d="M296,232c-6.628,0-12-5.376-12-12c0-15.436-12.564-28-28-28s-28,12.564-28,28
		c0,6.624-5.372,12-12,12s-12-5.376-12-12c0-28.672,23.328-52,52-52s52,23.328,52,52C308,226.624,302.628,232,296,232z"/>
	<path style="fill:#263740;" d="M228,217.044C228,256,194.78,284,161.392,284h-128C15.028,284,0,268.796,0,250.436v-89.048
		c0-18.364,15.028-33.392,33.392-33.392h161.396c18.368,0,33.22,15.028,33.22,33.392L228,217.044L228,217.044z"/>
</g>
<path style="fill:#C2E2F2;" d="M33.392,268C23.968,268,16,259.956,16,250.436v-89.048c0-9.584,7.8-17.392,17.392-17.392h161.396
	c9.496,0,17.22,7.8,17.22,17.392v55.652c0,30.48-26.168,50.956-50.608,50.956L33.392,268L33.392,268z"/>
<path style="fill:#263740;" d="M284,217.044C284,256,317.22,284,350.608,284h128C496.972,284,512,268.796,512,250.436v-89.048
	c0-18.364-15.028-33.392-33.392-33.392H317.216c-18.368,0-33.22,15.028-33.22,33.392L284,217.044L284,217.044z"/>
<path style="fill:#C2E2F2;" d="M350.608,268C326.168,268,300,247.524,300,217.044v-55.652c0-9.588,7.724-17.392,17.22-17.392
	h161.396c9.584,0,17.392,7.8,17.392,17.392v89.048c0,9.52-7.964,17.564-17.392,17.564L350.608,268L350.608,268z"/>
<path style="fill:#F2B800;" d="M256,461.916c-61.608,0-120.028-26.048-160.28-71.448c-3.936-4.44-5.916-10.164-5.568-16.1
	c0.36-5.928,3.004-11.376,7.448-15.32c4.08-3.612,9.32-5.604,14.764-5.604c6.368,0,12.436,2.736,16.66,7.5
	c31.812,35.884,78.088,56.456,126.968,56.456c48.752,0,94.932-20.464,126.696-56.156c4.232-4.744,10.288-7.456,16.636-7.456
	c5.456,0,10.712,2,14.792,5.624c4.436,3.952,7.076,9.4,7.416,15.332c0.352,5.936-1.64,11.656-5.584,16.096
	C375.752,436.008,317.448,461.916,256,461.916z"/>
<path style="fill:#F5F5F5;" d="M256,450.78c-58.424,0-113.808-24.676-151.952-67.708c-4.08-4.592-3.656-11.628,0.94-15.712
	c4.604-4.084,11.636-3.656,15.712,0.944c33.924,38.268,83.244,60.216,135.3,60.216c51.932,0,101.14-21.828,135.012-59.892
	c4.084-4.584,11.116-5,15.712-0.916s5.004,11.12,0.916,15.716C369.548,426.236,314.28,450.78,256,450.78z"/>
<rect x="212" y="136" style="fill:#263740;" width="88" height="24"/>
<g>
	<polygon style="fill:#DAEAF2;" points="16,221.116 16,244.372 89.244,144 72.272,144 	"/>
	<path style="fill:#DAEAF2;" d="M33.392,268h11.372l90.48-124H102.28L18.368,258.984C21.4,264.292,27.028,268,33.392,268z"/>
	<path style="fill:#DAEAF2;" d="M363.812,268l85.844-124h-32.972l-83.492,120.608c5.652,2.192,11.584,3.392,17.416,3.392H363.812z"
		/>
	<path style="fill:#DAEAF2;" d="M312.876,250.616c3.164,3.52,6.776,6.564,10.676,9.084l80.1-115.7H386.68L312.876,250.616z"/>
</g>
<g>
	<path style="fill:#263740;" d="M174.012,116.004c-0.776,0-1.572-0.08-2.364-0.24l-120-24c-6.5-1.296-10.716-7.62-9.416-14.116
		c1.3-6.496,7.596-10.744,14.116-9.416l120,24c6.5,1.296,10.716,7.62,9.416,14.116C184.624,112.06,179.616,116.004,174.012,116.004z
		"/>
	<path style="fill:#263740;" d="M337.988,116.004c0.776,0,1.572-0.08,2.364-0.24l120-24c6.5-1.296,10.716-7.62,9.416-14.116
		c-1.3-6.496-7.596-10.744-14.116-9.416l-120,24c-6.5,1.296-10.716,7.62-9.416,14.116
		C327.376,112.06,332.384,116.004,337.988,116.004z"/>
</g>
<g>
</g>
<g>
</g>
<g>
</g>
<g>
</g>
<g>
</g>
<g>
</g>
<g>
</g>
<g>
</g>
<g>
</g>
<g>
</g>
<g>
</g>
<g>
</g>
<g>
</g>
<g>
</g>
<g>
</g>
</svg>
