<?xml version="1.0" encoding="iso-8859-1"?>
<!-- Generator: Adobe Illustrator 19.0.0, SVG Export Plug-In . SVG Version: 6.00 Build 0)  -->
<svg version="1.1" id="Layer_1" xmlns="http://www.w3.org/2000/svg" xmlns:xlink="http://www.w3.org/1999/xlink" x="0px" y="0px"
	 viewBox="0 0 512 512" style="enable-background:new 0 0 512 512;" xml:space="preserve">
<circle style="fill:#FFC200;" cx="256" cy="256" r="256"/>
<path style="fill:#F2B800;" d="M256,0c-6.74,0-13.396,0.34-20,0.852C368.032,11.072,472,121.348,472,256
	S368.032,500.928,236,511.148c6.604,0.512,13.26,0.852,20,0.852c141.392,0,256-114.608,256-256S397.392,0,256,0z"/>
<g>
	<path style="fill:#263740;" d="M204,224c-6.624,0-12-5.376-12-12c0-19.852-16.148-36-36-36s-36,16.148-36,36
		c0,6.624-5.376,12-12,12s-12-5.376-12-12c0-33.084,26.916-60,60-60s60,26.916,60,60C216,218.624,210.624,224,204,224z"/>
	<path style="fill:#263740;" d="M404,224c-6.624,0-12-5.376-12-12c0-19.852-16.148-36-36-36s-36,16.148-36,36
		c0,6.624-5.376,12-12,12s-12-5.376-12-12c0-33.084,26.916-60,60-60s60,26.916,60,60C416,218.624,410.624,224,404,224z"/>
	<path style="fill:#263740;" d="M408,16c0,0-113.788-16-152-16S104,16,104,16c-13.2,0-24,10.8-24,24l8,40h336l8-40
		C432,26.8,421.2,16,408,16z"/>
	<path style="fill:#263740;" d="M88,80c0,24.056,75.768,56,168,56s168-31.944,168-56H88z"/>
</g>
<path style="fill:#FFD464;" d="M252,12c0,0-16,4-20,4c0,12,4,36,20,44c16-8,20-32,20-44C268,16,252,12,252,12z"/>
<path style="fill:#263740;" d="M256,312c-57.432,0-104,35.82-104,80v104c0,8.8,7.2,16,16,16h38.08V402.4
	c0-21.204,22.36-38.4,49.92-38.4s49.92,17.196,49.92,38.4V512H344c8.8,0,16-7.2,16-16V392C360,347.82,313.432,312,256,312z"/>
<polygon style="fill:#FFD464;" points="86.4,72 88,80 424,80 425.6,72 "/>
<g>
</g>
<g>
</g>
<g>
</g>
<g>
</g>
<g>
</g>
<g>
</g>
<g>
</g>
<g>
</g>
<g>
</g>
<g>
</g>
<g>
</g>
<g>
</g>
<g>
</g>
<g>
</g>
<g>
</g>
</svg>
