<?xml version="1.0" encoding="iso-8859-1"?>
<!-- Generator: Adobe Illustrator 19.0.0, SVG Export Plug-In . SVG Version: 6.00 Build 0)  -->
<svg version="1.1" id="Layer_1" xmlns="http://www.w3.org/2000/svg" xmlns:xlink="http://www.w3.org/1999/xlink" x="0px" y="0px"
	 viewBox="0 0 512 512" style="enable-background:new 0 0 512 512;" xml:space="preserve">
<circle style="fill:#FFC200;" cx="256" cy="256" r="256"/>
<g>
	<path style="fill:#F2B800;" d="M256,0c-6.74,0-13.392,0.34-20,0.852C368.032,11.064,472,121.348,472,256
		S368.032,500.928,236,511.148c6.608,0.508,13.26,0.852,20,0.852c141.392,0,256-114.608,256-256S397.392,0,256,0z"/>
	<path style="fill:#F2B800;" d="M260,456c-102.916,0-196.372-87.72-199.996-187.712c-0.08-2.172,0.728-4.28,2.236-5.844
		S65.824,260,67.996,260h380c4.304,0,7.836,3.408,7.996,7.712c1.6,44.22-17.228,90.064-51.668,125.768
		C366.008,433.212,313.408,456,260,456z"/>
</g>
<path style="fill:#F5F5F5;" d="M448,268c3.332,92-84.64,180-188,180c-103.316,0-188.668-88-192-180H448z"/>
<g>
	<path style="fill:#263740;" d="M208,168c-6.628,0-12-5.372-12-12c0-19.848-16.152-36-36-36s-36,16.152-36,36
		c0,6.628-5.372,12-12,12s-12-5.372-12-12c0-33.084,26.916-60,60-60s60,26.916,60,60C220,162.628,214.628,168,208,168z"/>
	<path style="fill:#263740;" d="M408,168c-6.628,0-12-5.372-12-12c0-19.848-16.152-36-36-36s-36,16.152-36,36
		c0,6.628-5.372,12-12,12s-12-5.372-12-12c0-33.084,26.916-60,60-60s60,26.916,60,60C420,162.628,414.628,168,408,168z"/>
</g>
<path style="fill:#E6E6E6;" d="M414.048,369.68c3.8-5.072,7.32-10.304,10.548-15.68h-2.548v-86h-8v86h-72v-86h-8v86h-72v-86h-8v86
	h-72v-86h-8v86h-72v-86h-8v83.868c2.508,4.144,5.176,8.204,8,12.168v-2.04h72v64.684c2.632,1.364,5.3,2.668,8,3.916v-68.6h72v85.84
	c1.984,0.064,3.956,0.16,5.952,0.16c0.684,0,1.364-0.052,2.048-0.06V362h72v70.54c2.696-1.16,5.368-2.368,8-3.648V362h72V369.68z"/>
<g>
</g>
<g>
</g>
<g>
</g>
<g>
</g>
<g>
</g>
<g>
</g>
<g>
</g>
<g>
</g>
<g>
</g>
<g>
</g>
<g>
</g>
<g>
</g>
<g>
</g>
<g>
</g>
<g>
</g>
</svg>
