<?xml version="1.0" encoding="iso-8859-1"?>
<!-- Generator: Adobe Illustrator 19.0.0, SVG Export Plug-In . SVG Version: 6.00 Build 0)  -->
<svg version="1.1" id="Layer_1" xmlns="http://www.w3.org/2000/svg" xmlns:xlink="http://www.w3.org/1999/xlink" x="0px" y="0px"
	 viewBox="0 0 512 512" style="enable-background:new 0 0 512 512;" xml:space="preserve">
<circle style="fill:#FFC200;" cx="256" cy="256" r="256"/>
<g>
	<path style="fill:#F2B800;" d="M256,0c-6.74,0-13.392,0.34-20,0.852C368.032,11.072,472,121.348,472,256
		S368.032,500.928,236,511.148c6.608,0.512,13.26,0.852,20,0.852c141.392,0,256-114.608,256-256S397.392,0,256,0z"/>
	<path style="fill:#F2B800;" d="M256,456c-102.916,0-196.372-87.72-199.996-187.712c-0.08-2.172,0.728-4.28,2.236-5.844
		S61.828,260,64,260h380c4.304,0,7.836,3.408,7.996,7.712c1.604,44.22-17.232,90.064-51.668,125.768
		C362.008,433.212,309.408,456,256,456z"/>
</g>
<path style="fill:#F5F5F5;" d="M444,268c3.332,92-84.64,180-188,180c-103.316,0-188.668-88-192-180H444z"/>
<path style="fill:#E6E6E6;" d="M96.772,362.196V362h72v64.028c2.632,1.388,5.3,2.724,8,3.992V362h72v85.808
	C251.176,447.9,253.576,448,256,448c0.26,0,0.516-0.02,0.772-0.02V362h72v71.084c2.7-1.14,5.364-2.344,8-3.596V362h76.68v3.056
	c2.856-4.068,5.5-8.24,8-12.484V268h-8v86h-76.68v-86h-8v86h-72v-86h-8v86h-72v-86h-8v86h-72v-86h-8v81.756
	C91.264,353.996,93.952,358.132,96.772,362.196z"/>
<g>
	<path style="fill:#263740;" d="M132,232c-2.048,0-4.096-0.78-5.656-2.344c-3.124-3.124-3.124-8.188,0-11.312L188.684,156
		l-62.34-62.344c-3.124-3.124-3.124-8.188,0-11.312c3.12-3.124,8.192-3.124,11.312,0l68,68c3.124,3.124,3.124,8.188,0,11.312l-68,68
		C136.096,231.22,134.048,232,132,232z"/>
	<path style="fill:#263740;" d="M380,232c-2.048,0-4.092-0.78-5.656-2.344l-68-68c-3.124-3.124-3.124-8.188,0-11.312l68-68
		c3.12-3.124,8.192-3.124,11.312,0c3.124,3.124,3.124,8.188,0,11.312L323.316,156l62.34,62.344c3.124,3.124,3.124,8.188,0,11.312
		C384.092,231.22,382.048,232,380,232z"/>
</g>
<g>
</g>
<g>
</g>
<g>
</g>
<g>
</g>
<g>
</g>
<g>
</g>
<g>
</g>
<g>
</g>
<g>
</g>
<g>
</g>
<g>
</g>
<g>
</g>
<g>
</g>
<g>
</g>
<g>
</g>
</svg>
