<?xml version="1.0" encoding="iso-8859-1"?>
<!-- Generator: Adobe Illustrator 19.0.0, SVG Export Plug-In . SVG Version: 6.00 Build 0)  -->
<svg version="1.1" id="Layer_1" xmlns="http://www.w3.org/2000/svg" xmlns:xlink="http://www.w3.org/1999/xlink" x="0px" y="0px"
	 viewBox="0 0 512 512" style="enable-background:new 0 0 512 512;" xml:space="preserve">
<circle style="fill:#FFC200;" cx="248" cy="248" r="248"/>
<path style="fill:#FFFFFF;" d="M384,256c-70.58,0-128,57.42-128,128s57.42,128,128,128s128-57.42,128-128S454.58,256,384,256z"/>
<g>
	<path style="fill:#F2B800;" d="M456,248c0,9.844-0.64,19.532-1.756,29.076c13.252,8.74,24.776,19.864,33.984,32.76
		C493.296,290.072,496,269.352,496,248C496,111.032,384.96,0,248,0c-6.744,0-13.4,0.344-20,0.876
		C355.592,11.072,456,117.772,456,248z"/>
	<path style="fill:#F2B800;" d="M298.252,478.944c-22.064,8.62-45.64,14.216-70.252,16.18c6.6,0.532,13.256,0.876,20,0.876
		c21.352,0,42.072-2.704,61.836-7.772C305.8,485.344,301.92,482.26,298.252,478.944z"/>
	<path style="fill:#F2B800;" d="M258.476,409.044c-3.476,0.216-6.968,0.348-10.476,0.348c-48.884,0-95.156-20.58-126.968-56.456
		c-4.224-4.764-10.288-7.5-16.66-7.5c-5.448,0-10.692,1.992-14.768,5.604c-4.44,3.944-7.084,9.392-7.444,15.32
		c-0.356,5.936,1.624,11.66,5.572,16.1c40.252,45.408,98.672,71.448,160.276,71.448c9.324,0,18.56-0.668,27.684-1.836
		C267.5,439.104,261.572,424.584,258.476,409.044z"/>
</g>
<path style="fill:#F5F5F5;" d="M261.188,419.996c-4.376,0.312-8.764,0.528-13.188,0.528c-52.064,0-101.376-21.944-135.3-60.212
	c-4.076-4.6-11.104-5.028-15.712-0.944c-4.596,4.084-5.02,11.112-0.94,15.712c38.144,43.032,93.532,67.708,151.952,67.708
	c7.312,0,14.58-0.392,21.764-1.148C266.272,434.752,263.4,427.52,261.188,419.996z"/>
<g>
	<path style="fill:#263740;" d="M196,196c-6.624,0-12-5.376-12-12c0-19.852-16.148-36-36-36s-36,16.148-36,36
		c0,6.624-5.376,12-12,12s-12-5.376-12-12c0-33.084,26.916-60,60-60s60,26.916,60,60C208,190.624,202.624,196,196,196z"/>
	<path style="fill:#263740;" d="M396,196c-6.624,0-12-5.376-12-12c0-19.852-16.148-36-36-36s-36,16.148-36,36
		c0,6.624-5.376,12-12,12s-12-5.376-12-12c0-33.084,26.916-60,60-60s60,26.916,60,60C408,190.624,402.624,196,396,196z"/>
</g>
<circle style="fill:#91D2F2;" cx="384" cy="384" r="104"/>
<g>
	<path style="fill:#263740;" d="M384,496c-61.756,0-112-50.244-112-112s50.244-112,112-112s112,50.244,112,112S445.756,496,384,496z
		 M384,288c-52.928,0-96,43.068-96,96s43.072,96,96,96s96-43.068,96-96S436.928,288,384,288z"/>
	<path style="fill:#263740;" d="M384,496c-37.812,0-67.428-49.196-67.428-112S346.188,272,384,272s67.428,49.196,67.428,112
		S421.812,496,384,496z M384,288c-27.884,0-51.428,43.96-51.428,96s23.552,96,51.428,96s51.428-43.96,51.428-96S411.884,288,384,288
		z"/>
	<rect x="280" y="376" style="fill:#263740;" width="208" height="16"/>
	<rect x="288" y="424" style="fill:#263740;" width="192" height="16"/>
	<rect x="288" y="328" style="fill:#263740;" width="188" height="16"/>
</g>
<g>
</g>
<g>
</g>
<g>
</g>
<g>
</g>
<g>
</g>
<g>
</g>
<g>
</g>
<g>
</g>
<g>
</g>
<g>
</g>
<g>
</g>
<g>
</g>
<g>
</g>
<g>
</g>
<g>
</g>
</svg>
