<?xml version="1.0" encoding="iso-8859-1"?>
<!-- Generator: Adobe Illustrator 19.0.0, SVG Export Plug-In . SVG Version: 6.00 Build 0)  -->
<svg version="1.1" id="Layer_1" xmlns="http://www.w3.org/2000/svg" xmlns:xlink="http://www.w3.org/1999/xlink" x="0px" y="0px"
	 viewBox="0 0 512 512" style="enable-background:new 0 0 512 512;" xml:space="preserve">
<circle style="fill:#FFC200;" cx="256" cy="256" r="256"/>
<path style="fill:#F2B800;" d="M256,0c-6.74,0-13.392,0.34-20,0.852C368.028,11.068,472,121.348,472,256
	S368.028,500.932,236,511.148c6.608,0.512,13.26,0.852,20,0.852c141.392,0,256-114.608,256-256S397.392,0,256,0z"/>
<g>
	<path style="fill:#263740;" d="M204,208c-6.628,0-12-5.376-12-12c0-19.852-16.152-36-36-36s-36,16.148-36,36
		c0,6.624-5.372,12-12,12s-12-5.376-12-12c0-33.084,26.916-60,60-60s60,26.916,60,60C216,202.624,210.628,208,204,208z"/>
	<path style="fill:#263740;" d="M404,208c-6.628,0-12-5.376-12-12c0-19.852-16.152-36-36-36s-36,16.148-36,36
		c0,6.624-5.372,12-12,12s-12-5.376-12-12c0-33.084,26.916-60,60-60s60,26.916,60,60C416,202.624,410.628,208,404,208z"/>
</g>
<path style="fill:#E16B5A;" d="M360,328c-24,0-36-36-64-36c-20,0-40,16-40,36c0-20-20-36-40-36c-28,0-40,36-64,36c36,0,48,80,104,80
	S324,328,360,328z"/>
<g>
	<path style="fill:#B35547;" d="M360,336c-14.736,0-24.992-9.74-34.916-19.16C315.964,308.18,307.348,300,296,300
		c-15.1,0-32,11.972-32,28c0,4.416-3.584,8-8,8c-4.416,0-8-3.584-8-8c0-16.028-16.896-28-32-28c-11.348,0-19.964,8.18-29.088,16.84
		C176.992,326.26,166.732,336,152,336c-4.416,0-8-3.584-8-8s3.584-8,8-8c8.344,0,15.552-6.84,23.896-14.76
		C186.384,295.284,198.268,284,216,284c16.252,0,31.24,8.308,40,20.384C264.756,292.308,279.752,284,296,284
		c17.736,0,29.616,11.28,40.1,21.24c8.344,7.92,15.556,14.76,23.9,14.76c4.416,0,8,3.584,8,8S364.416,336,360,336z"/>
	<path style="fill:#B35547;" d="M256,416c-35.208,0-54.9-27.688-70.724-49.936C173.8,349.928,163.892,336,152,336
		c-4.416,0-8-3.584-8-8s3.584-8,8-8c20.148,0,32.856,17.872,46.312,36.788C213.42,378.032,229.048,400,256,400
		s42.58-21.968,57.688-43.212C327.144,337.872,339.856,320,360,320c4.416,0,8,3.584,8,8s-3.584,8-8,8
		c-11.892,0-21.8,13.928-33.272,30.064C310.9,388.312,291.208,416,256,416z"/>
	<path style="fill:#B35547;" d="M256,360c-28.208,0-44.716-7.74-59.28-14.572C185.924,340.368,176.604,336,164,336
		c-4.416,0-8-3.584-8-8s3.584-8,8-8c16.168,0,27.504,5.316,39.508,10.944C217.2,337.364,231.356,344,256,344c4.416,0,8,3.584,8,8
		S260.416,360,256,360z"/>
	<path style="fill:#B35547;" d="M256,360c-4.416,0-8-3.584-8-8s3.584-8,8-8c24.644,0,38.8-6.636,52.492-13.056
		C320.496,325.316,331.836,320,348,320c4.416,0,8,3.584,8,8s-3.584,8-8,8c-12.6,0-21.92,4.372-32.72,9.428
		C300.72,352.26,284.208,360,256,360z"/>
</g>
<g>
</g>
<g>
</g>
<g>
</g>
<g>
</g>
<g>
</g>
<g>
</g>
<g>
</g>
<g>
</g>
<g>
</g>
<g>
</g>
<g>
</g>
<g>
</g>
<g>
</g>
<g>
</g>
<g>
</g>
</svg>
