<?xml version="1.0" encoding="iso-8859-1"?>
<!-- Generator: Adobe Illustrator 19.0.0, SVG Export Plug-In . SVG Version: 6.00 Build 0)  -->
<svg version="1.1" id="Layer_1" xmlns="http://www.w3.org/2000/svg" xmlns:xlink="http://www.w3.org/1999/xlink" x="0px" y="0px"
	 viewBox="0 0 512 512" style="enable-background:new 0 0 512 512;" xml:space="preserve">
<circle style="fill:#FFC200;" cx="256" cy="256" r="256"/>
<g>
	<path style="fill:#F2B800;" d="M256,0c-6.74,0-13.392,0.34-20,0.852C368.032,11.072,472,121.348,472,256
		S368.032,500.932,236,511.148c6.608,0.512,13.26,0.852,20,0.852c141.392,0,256-114.608,256-256S397.392,0,256,0z"/>
	<path style="fill:#F2B800;" d="M348,328H168c-8.824,0-16,7.176-16,16s7.176,16,16,16h56v16c0,8.824,7.176,16,16,16h16
		c2.928,0,5.636-0.848,8-2.228c2.364,1.38,5.072,2.228,8,2.228h16c8.824,0,16-7.176,16-16v-16h44c8.824,0,16-7.176,16-16
		S356.824,328,348,328z"/>
</g>
<g>
	<rect x="216" y="168" style="fill:#263740;" width="80" height="24"/>
	<circle style="fill:#263740;" cx="392" cy="192" r="112"/>
</g>
<path style="fill:#C2E2F2;" d="M392,288c-52.928,0-96-43.064-96-96s43.072-96,96-96s96,43.064,96,96S444.928,288,392,288z"/>
<g>
	<circle style="fill:#DAEAF2;" cx="348" cy="140" r="8"/>
	<circle style="fill:#DAEAF2;" cx="348" cy="176" r="16"/>
</g>
<circle style="fill:#242424;" cx="371" cy="220" r="12"/>
<circle style="fill:#263740;" cx="120" cy="192" r="112"/>
<path style="fill:#C2E2F2;" d="M120,288c-52.932,0-96-43.064-96-96s43.068-96,96-96s96,43.064,96,96S172.932,288,120,288z"/>
<g>
	<circle style="fill:#DAEAF2;" cx="72" cy="140" r="8"/>
	<circle style="fill:#DAEAF2;" cx="72" cy="176" r="16"/>
</g>
<circle style="fill:#242424;" cx="141" cy="220" r="12"/>
<g>
	<path style="fill:#F5F5F5;" d="M348,352H168c-4.416,0-8-3.584-8-8s3.584-8,8-8h180c4.416,0,8,3.584,8,8S352.416,352,348,352z"/>
	<path style="fill:#F5F5F5;" d="M264,352v24c0,4.4-3.6,8-8,8h-16c-4.4,0-8-3.6-8-8v-24H264z"/>
</g>
<path style="fill:#E6E6E6;" d="M260,352v24c0,4.4-3.6,8-8,8h4c4.4,0,8-3.6,8-8v-24H260z"/>
<path style="fill:#F5F5F5;" d="M296,352v24c0,4.4-3.6,8-8,8h-16c-4.4,0-8-3.6-8-8v-24H296z"/>
<g>
	<path style="fill:#E6E6E6;" d="M292,352v24c0,4.4-3.6,8-8,8h4c4.4,0,8-3.6,8-8v-24H292z"/>
	<rect x="232" y="352" style="fill:#E6E6E6;" width="64" height="4"/>
</g>
<g>
</g>
<g>
</g>
<g>
</g>
<g>
</g>
<g>
</g>
<g>
</g>
<g>
</g>
<g>
</g>
<g>
</g>
<g>
</g>
<g>
</g>
<g>
</g>
<g>
</g>
<g>
</g>
<g>
</g>
</svg>
