<?xml version="1.0" encoding="iso-8859-1"?>
<!-- Generator: Adobe Illustrator 19.0.0, SVG Export Plug-In . SVG Version: 6.00 Build 0)  -->
<svg version="1.1" id="Layer_1" xmlns="http://www.w3.org/2000/svg" xmlns:xlink="http://www.w3.org/1999/xlink" x="0px" y="0px"
	 viewBox="0 0 512 512" style="enable-background:new 0 0 512 512;" xml:space="preserve">
<circle style="fill:#FFC200;" cx="256" cy="256" r="256"/>
<path style="fill:#F2B800;" d="M256,0c-6.74,0-13.392,0.34-20,0.852C368.028,11.068,472,121.348,472,256
	c0,134.656-103.972,244.928-236,255.148c6.608,0.508,13.26,0.852,20,0.852c141.392,0,256-114.608,256-256S397.392,0,256,0z"/>
<g>
	<path style="fill:#263740;" d="M308,224h-16c0-19.848-16.152-36-36-36s-36,16.152-36,36h-16c0-28.672,23.328-52,52-52
		S308,195.328,308,224z"/>
	<path style="fill:#263740;" d="M228,252c0,13.2-10.8,24-24,24h-96c-13.2,0-24-10.8-24-24v-56c0-13.2,10.8-24,24-24h96
		c13.2,0,24,10.8,24,24V252z"/>
</g>
<path style="fill:#C2E2F2;" d="M108,260c-4.336,0-8-3.664-8-8v-56c0-4.336,3.664-8,8-8h96c4.336,0,8,3.664,8,8v56
	c0,4.336-3.664,8-8,8H108z"/>
<path style="fill:#263740;" d="M428,252c0,13.2-10.8,24-24,24h-96c-13.2,0-24-10.8-24-24v-56c0-13.2,10.8-24,24-24h96
	c13.2,0,24,10.8,24,24V252z"/>
<path style="fill:#C2E2F2;" d="M308,260c-4.336,0-8-3.664-8-8v-56c0-4.336,3.664-8,8-8h96c4.336,0,8,3.664,8,8v56
	c0,4.336-3.664,8-8,8H308z"/>
<g>
	<circle style="fill:#242424;" cx="180" cy="232" r="12"/>
	<circle style="fill:#242424;" cx="332" cy="232" r="12"/>
</g>
<path style="fill:#F2B800;" d="M256.152,460.48c-61.608,0-120.028-26.044-160.28-71.452c-3.94-4.44-5.92-10.164-5.568-16.096
	c0.36-5.936,3.004-11.376,7.448-15.32c4.08-3.62,9.32-5.612,14.768-5.612c6.368,0,12.436,2.736,16.66,7.5
	c31.812,35.88,78.088,56.46,126.968,56.46c48.752,0,94.928-20.468,126.696-56.156c4.228-4.744,10.288-7.464,16.636-7.464
	c5.456,0,10.712,2,14.792,5.632c4.436,3.948,7.076,9.396,7.416,15.332c0.352,5.936-1.636,11.656-5.588,16.092
	C375.908,434.58,317.6,460.48,256.152,460.48z"/>
<path style="fill:#F5F5F5;" d="M256.152,449.352c-58.424,0-113.808-24.676-151.952-67.704c-4.08-4.592-3.656-11.632,0.94-15.712
	c4.604-4.084,11.636-3.656,15.712,0.94c33.924,38.264,83.244,60.208,135.3,60.208c51.932,0,101.136-21.828,135.012-59.888
	c4.084-4.584,11.116-5,15.712-0.916c4.592,4.088,5.008,11.124,0.916,15.72C369.7,424.804,314.428,449.352,256.152,449.352z"/>
<g>
</g>
<g>
</g>
<g>
</g>
<g>
</g>
<g>
</g>
<g>
</g>
<g>
</g>
<g>
</g>
<g>
</g>
<g>
</g>
<g>
</g>
<g>
</g>
<g>
</g>
<g>
</g>
<g>
</g>
</svg>
