<?xml version="1.0" encoding="iso-8859-1"?>
<!-- Generator: Adobe Illustrator 19.0.0, SVG Export Plug-In . SVG Version: 6.00 Build 0)  -->
<svg version="1.1" id="Layer_1" xmlns="http://www.w3.org/2000/svg" xmlns:xlink="http://www.w3.org/1999/xlink" x="0px" y="0px"
	 viewBox="0 0 512 512" style="enable-background:new 0 0 512 512;" xml:space="preserve">
<circle style="fill:#FFC200;" cx="256" cy="272" r="240"/>
<g>
	<path style="fill:#F2B800;" d="M256,32c-6.744,0-13.4,0.348-20,0.896C359.184,43.068,456,146.188,456,272
		s-96.816,228.932-220,239.104c6.6,0.548,13.256,0.896,20,0.896c132.556,0,240-107.444,240-240S388.556,32,256,32z"/>
	<path style="fill:#F2B800;" d="M256,472c-101.884,0-190.824-72.312-211.484-171.936c-1.232-5.916,0.252-11.996,4.068-16.688
		C52.404,278.688,58.056,276,64.1,276H168c11.028,0,20,8.972,20,20s-8.972,20-20,20H90.508C115.52,384.812,182.08,432,256,432
		c83.02,0,155.492-58.908,172.32-140.064c1.916-9.24,10.14-15.936,19.572-15.936c1.36,0,2.728,0.14,4.064,0.416
		c10.804,2.248,17.772,12.852,15.536,23.644C446.824,399.688,357.884,472,256,472z"/>
</g>
<path style="fill:#F5F5F5;" d="M256,464c-98.112,0-183.756-69.628-203.652-165.564c-0.736-3.54,0.164-7.216,2.44-10.012
	c2.28-2.8,5.7-4.424,9.308-4.424H168c6.628,0,12,5.376,12,12s-5.372,12-12,12H79.46c22.756,77.308,94.752,132,176.54,132
	c86.792,0,162.564-61.584,180.152-146.436c1.344-6.492,7.676-10.656,14.188-9.312c6.488,1.348,10.656,7.7,9.312,14.192
	C439.756,394.372,354.108,464,256,464z"/>
<g>
	<path style="fill:#263740;" d="M156,232c-30.88,0-56-25.12-56-56s25.12-56,56-56s56,25.12,56,56S186.88,232,156,232z M156,144
		c-17.644,0-32,14.356-32,32s14.356,32,32,32s32-14.356,32-32S173.644,144,156,144z"/>
	<path style="fill:#263740;" d="M356,232c-30.884,0-56-25.12-56-56s25.116-56,56-56s56,25.12,56,56S386.884,232,356,232z M356,144
		c-17.644,0-32,14.356-32,32s14.356,32,32,32s32-14.356,32-32S373.644,144,356,144z"/>
	<path style="fill:#263740;" d="M288,104c0,8.8-7.2,16-16,16h-40c-8.8,0-16-7.2-16-16l-8-88c0-8.8,7.2-16,16-16h56
		c8.8,0,16,7.2,16,16L288,104z"/>
</g>
<path style="fill:#1E2C33;" d="M280,0h-16c8.8,0,16,7.2,16,16l-8,88c0,8.8-7.2,16-16,16h16c8.8,0,16-7.2,16-16l8-88
	C296,7.2,288.8,0,280,0z"/>
<g>
</g>
<g>
</g>
<g>
</g>
<g>
</g>
<g>
</g>
<g>
</g>
<g>
</g>
<g>
</g>
<g>
</g>
<g>
</g>
<g>
</g>
<g>
</g>
<g>
</g>
<g>
</g>
<g>
</g>
</svg>
