<?xml version="1.0" encoding="iso-8859-1"?>
<!-- Generator: Adobe Illustrator 19.0.0, SVG Export Plug-In . SVG Version: 6.00 Build 0)  -->
<svg version="1.1" id="Layer_1" xmlns="http://www.w3.org/2000/svg" xmlns:xlink="http://www.w3.org/1999/xlink" x="0px" y="0px"
	 viewBox="0 0 512 512" style="enable-background:new 0 0 512 512;" xml:space="preserve">
<circle style="fill:#FFC200;" cx="256" cy="256" r="256"/>
<path style="fill:#F2B800;" d="M256,0c-6.744,0-13.4,0.34-20,0.852C368.032,11.072,472,121.348,472,256S368.032,500.928,236,511.148
	c6.6,0.512,13.256,0.852,20,0.852c141.392,0,256-114.608,256-256S397.392,0,256,0z"/>
<g>
	<path style="fill:#263740;" d="M156,220c-30.884,0-56-25.116-56-56s25.116-56,56-56s56,25.116,56,56S186.884,220,156,220z M156,132
		c-17.644,0-32,14.356-32,32s14.356,32,32,32s32-14.356,32-32S173.644,132,156,132z"/>
	<path style="fill:#263740;" d="M356,220c-30.884,0-56-25.116-56-56s25.116-56,56-56s56,25.116,56,56S386.884,220,356,220z M356,132
		c-17.644,0-32,14.356-32,32s14.356,32,32,32s32-14.356,32-32S373.644,132,356,132z"/>
</g>
<path style="fill:#F2B800;" d="M240,436c-48.524,0-88-32.3-88-72s39.476-72,88-72s88,32.3,88,72S288.524,436,240,436z"/>
<ellipse style="fill:#F5F5F5;" cx="240" cy="364" rx="80" ry="65.452"/>
<g>
</g>
<g>
</g>
<g>
</g>
<g>
</g>
<g>
</g>
<g>
</g>
<g>
</g>
<g>
</g>
<g>
</g>
<g>
</g>
<g>
</g>
<g>
</g>
<g>
</g>
<g>
</g>
<g>
</g>
</svg>
