<?xml version="1.0" encoding="iso-8859-1"?>
<!-- Generator: Adobe Illustrator 19.0.0, SVG Export Plug-In . SVG Version: 6.00 Build 0)  -->
<svg version="1.1" id="Layer_1" xmlns="http://www.w3.org/2000/svg" xmlns:xlink="http://www.w3.org/1999/xlink" x="0px" y="0px"
	 viewBox="0 0 512 512" style="enable-background:new 0 0 512 512;" xml:space="preserve">
<circle style="fill:#FFC200;" cx="256" cy="256" r="256"/>
<g>
	<path style="fill:#F2B800;" d="M256,0c-6.744,0-13.4,0.34-20,0.852C368.024,11.072,472,121.356,472,256
		S368.024,500.932,236,511.148c6.6,0.512,13.256,0.852,20,0.852c141.384,0,256-114.616,256-256S397.384,0,256,0z"/>
	<path style="fill:#F2B800;" d="M430.712,269.596c-1.712-5.068-5.288-9.152-10.076-11.524c-2.748-1.36-5.808-2.08-8.864-2.08
		c-7.664,0-14.54,4.26-17.932,11.128C372.264,310.716,316.872,340,256,340s-116.264-29.284-137.84-72.876
		C114.756,260.26,107.892,256,100.228,256c-3.048,0-6.108,0.72-8.86,2.076c-4.788,2.376-8.368,6.46-10.08,11.528
		c-1.712,5.064-1.344,10.488,1.028,15.268c14.584,29.472,39.48,53.608,70.568,70.204c-0.54,4.28-0.884,8.588-0.884,12.924
		c0,57.348,46.652,104,104,104s104-46.652,104-104c0-4.336-0.344-8.644-0.884-12.924c31.084-16.588,55.976-40.728,70.568-70.2
		C432.056,280.084,432.416,274.66,430.712,269.596z"/>
</g>
<g>
	<path style="fill:#263740;" d="M99.212,195.072c-3.944-0.484-7.572-2.92-9.392-6.796c-2.828-5.992-0.256-13.14,5.744-15.964
		l81.308-38.316c5.992-2.832,13.144-0.256,15.964,5.744c2.828,5.992,0.256,13.14-5.744,15.964L105.78,194.02
		C103.656,195.016,101.392,195.34,99.212,195.072z"/>
	<path style="fill:#263740;" d="M412.788,195.072c3.952-0.484,7.572-2.92,9.392-6.796c2.828-5.992,0.256-13.14-5.736-15.964
		l-81.312-38.316c-5.992-2.832-13.148-0.256-15.968,5.744c-2.828,5.992-0.256,13.14,5.744,15.964l81.312,38.316
		C408.344,195.016,410.616,195.34,412.788,195.072z"/>
</g>
<path style="fill:#E16B5A;" d="M256,360c-33.744,0-65.084-7.964-91.348-21.544C161.644,347.764,160,357.692,160,368
	c0,53.02,42.98,96,96,96s96-42.98,96-96c0-10.308-1.644-20.236-4.652-29.544C321.084,352.036,289.744,360,256,360z"/>
<path style="fill:#CC6152;" d="M256,380c34.736,0,67.52-7.948,95.416-22.008c-0.704-6.736-2.048-13.284-4.068-19.536
	C321.084,352.036,289.744,360,256,360s-65.084-7.964-91.348-21.544c-2.02,6.252-3.364,12.8-4.068,19.536
	C188.48,372.052,221.264,380,256,380z"/>
<path style="fill:#F5F5F5;" d="M256,372c-73.892,0-139.252-35.592-166.516-90.676c-2.936-5.94-0.508-13.14,5.428-16.084
	c5.936-2.932,13.132-0.508,16.08,5.428C133.884,316.924,192.156,348,256,348s122.116-31.076,145.008-77.324
	c2.936-5.936,10.144-8.368,16.08-5.424c5.936,2.932,8.376,10.132,5.428,16.08C395.252,336.408,329.892,372,256,372z"/>
<g>
</g>
<g>
</g>
<g>
</g>
<g>
</g>
<g>
</g>
<g>
</g>
<g>
</g>
<g>
</g>
<g>
</g>
<g>
</g>
<g>
</g>
<g>
</g>
<g>
</g>
<g>
</g>
<g>
</g>
</svg>
