<?xml version="1.0" encoding="iso-8859-1"?>
<!-- Generator: Adobe Illustrator 19.0.0, SVG Export Plug-In . SVG Version: 6.00 Build 0)  -->
<svg version="1.1" id="Layer_1" xmlns="http://www.w3.org/2000/svg" xmlns:xlink="http://www.w3.org/1999/xlink" x="0px" y="0px"
	 viewBox="0 0 512 512" style="enable-background:new 0 0 512 512;" xml:space="preserve">
<circle style="fill:#FFC200;" cx="256" cy="256" r="256"/>
<path style="fill:#F2B800;" d="M256,0c-6.744,0-13.4,0.34-20,0.852C368.032,11.068,472,121.348,472,256S368.032,500.928,236,511.148
	c6.6,0.508,13.256,0.852,20,0.852c141.392,0,256-114.608,256-256S397.392,0,256,0z"/>
<path style="fill:#263740;" d="M404,200c-6.624,0-12-5.372-12-12c0-19.848-16.148-36-36-36s-36,16.152-36,36c0,6.628-5.376,12-12,12
	s-12-5.372-12-12c0-33.084,26.916-60,60-60s60,26.916,60,60C416,194.628,410.624,200,404,200z"/>
<path style="fill:#F2B800;" d="M256,472c-101.884,0-190.824-72.312-211.484-171.936c-1.236-5.916,0.252-12,4.072-16.688
	S58.056,276,64.092,276H168c11.028,0,20,8.972,20,20s-8.972,20-20,20H90.508C115.52,384.812,182.08,432,256,432
	c83.02,0,155.492-58.908,172.32-140.064C430.236,282.7,438.46,276,447.892,276c1.36,0,2.728,0.14,4.064,0.416
	c10.804,2.248,17.772,12.852,15.536,23.648C446.824,399.688,357.884,472,256,472z"/>
<path style="fill:#F5F5F5;" d="M256,464c-98.108,0-183.756-69.628-203.652-165.564c-0.74-3.532,0.164-7.212,2.44-10.008
	c2.28-2.8,5.7-4.424,9.304-4.424H168c6.628,0,12,5.372,12,12s-5.372,12-12,12H79.46c22.756,77.308,94.752,132,176.54,132
	c86.792,0,162.564-61.584,180.152-146.432c1.344-6.492,7.676-10.656,14.188-9.32c6.488,1.344,10.656,7.696,9.312,14.188
	C439.756,394.372,354.108,464,256,464z"/>
<path style="fill:#263740;" d="M156,220c-30.884,0-56-25.12-56-56s25.116-56,56-56s56,25.12,56,56S186.884,220,156,220z M156,132
	c-17.644,0-32,14.356-32,32s14.356,32,32,32s32-14.356,32-32S173.644,132,156,132z"/>
<g>
</g>
<g>
</g>
<g>
</g>
<g>
</g>
<g>
</g>
<g>
</g>
<g>
</g>
<g>
</g>
<g>
</g>
<g>
</g>
<g>
</g>
<g>
</g>
<g>
</g>
<g>
</g>
<g>
</g>
</svg>
